<?xml version="1.0" standalone="no"?>
<!DOCTYPE svg PUBLIC "-//W3C//DTD SVG 1.1//EN" "http://www.w3.org/Graphics/SVG/1.1/DTD/svg11.dtd" >
<svg>
<metadata>
Created by FontForge 20090622 at Wed Mar  5 05:07:31 2014
 By ffonts
1.2, Copyright Copr. Castcraft Software, Inc. 1990-1991.
</metadata>
<defs>
<font id="OPTIGurney-MediumExpanded" horiz-adv-x="740" >
  <font-face 
    font-family="OPTIGurney-MediumExpanded"
    font-weight="500"
    font-stretch="normal"
    units-per-em="1000"
    panose-1="0 0 0 0 0 0 0 0 0 0"
    ascent="800"
    descent="-200"
    x-height="502"
    cap-height="747"
    bbox="-77 -248.309 1261 1042"
    underline-thickness="57"
    underline-position="-75"
    stemh="90"
    stemv="112"
    unicode-range="U+0020-U+FB02"
  />
<missing-glyph horiz-adv-x="280" 
 />
    <glyph glyph-name=".notdef" horiz-adv-x="280" 
 />
    <glyph glyph-name="space" unicode=" " horiz-adv-x="149" 
d="M176 0z" />
    <glyph glyph-name="exclam" unicode="!" horiz-adv-x="248" 
d="M72 740h143l-16 -559h-111zM80 117h128v-117h-128v117z" />
    <glyph glyph-name="quotedbl" unicode="&#x22;" horiz-adv-x="301" 
d="M122 473h-19l-24 180c-7 59 -16 117 11 134c10 7 30 8 44 -2c26 -21 18 -72 11 -130zM239 473h-20l-24 180c-7 59 -16 117 11 134c10 7 31 8 44 -2c27 -21 19 -72 11 -130z" />
    <glyph glyph-name="numbersign" unicode="#" horiz-adv-x="826" 
d="M407 702h85l-80 -228h138l81 228h84l-80 -228h158l-23 -66h-159l-52 -144h158l-23 -65h-158l-82 -232h-85l83 232h-139l-83 -232h-84l82 232h-156l23 65h157l53 144h-159l24 66h157zM336 264h138l53 144h-139z" />
    <glyph glyph-name="dollar" unicode="$" horiz-adv-x="785" 
d="M378 823h66v-82c132 -5 275 -50 312 -208l-127 -17c-13 63 -34 103 -112 128c-9 3 -30 10 -73 13v-226c174 -27 293 -52 326 -160c16 -54 8 -126 -49 -183c-71 -71 -175 -89 -277 -96v-79h-66v82c-71 2 -239 33 -304 139c-18 29 -28 58 -34 99l137 20
c9 -62 21 -107 95 -145c12 -5 29 -12 53 -18c15 -4 40 -7 53 -6v252l-69 15c-74 15 -191 41 -228 130c-19 47 -12 98 23 147c67 90 193 113 274 116v79zM223 595c-20 -26 -22 -54 -13 -78c24 -62 128 -75 168 -79v219c-41 -2 -121 -19 -155 -62zM444 82c51 4 136 18 176 76
c20 29 24 61 14 85c-21 47 -123 69 -150 75l-40 8v-244z" />
    <glyph glyph-name="percent" unicode="%" horiz-adv-x="879" 
d="M714 726h100l-619 -726h-99zM233 735c115 0 199 -76 199 -195c0 -116 -73 -204 -189 -204c-114 0 -202 73 -203 194c-1 119 75 205 193 205zM671 388c115 0 199 -75 199 -195c0 -116 -73 -203 -189 -203c-114 0 -202 73 -203 193c-1 119 75 205 193 205zM576 188
c0 -74 24 -133 97 -133s97 59 97 133s-24 135 -97 135s-97 -61 -97 -135zM138 535c0 -74 24 -134 97 -134s96 60 96 134s-23 135 -96 135s-97 -61 -97 -135z" />
    <glyph glyph-name="ampersand" unicode="&#x26;" horiz-adv-x="850" 
d="M636 481h206v-84h-206v-398h-125v398h-96c-53 0 -182 4 -237 -84c-24 -38 -25 -90 -5 -130c33 -67 102 -88 157 -93c13 -2 24 -4 102 2v-92c-62 0 -187 -6 -264 38c-34 20 -70 53 -93 91c-37 61 -47 141 -16 199c39 75 109 103 177 117c-66 0 -146 41 -148 130
c-1 48 12 96 68 138c85 64 279 61 370 15c108 -53 110 -128 110 -232v-15zM497 617c-31 56 -100 65 -140 65c-42 0 -109 -11 -139 -64c-15 -25 -14 -59 -3 -78c42 -68 135 -67 195 -67h101c0 69 1 117 -14 144z" />
    <glyph glyph-name="quotesingle" unicode="'" horiz-adv-x="329" 
d="M169 742h127l-128 -298h-96z" />
    <glyph glyph-name="parenleft" unicode="(" horiz-adv-x="374" 
d="M150 117c-147 261 -76 436 124 706h68l-65 -134c-104 -215 -123 -352 -36 -565c0 0 25 -65 43 -105l46 -103h-65z" />
    <glyph glyph-name="parenright" unicode=")" horiz-adv-x="374" 
d="M252 619c147 -260 76 -436 -123 -705h-68l65 133c103 215 122 352 36 565c0 0 -26 66 -44 106l-46 103h65z" />
    <glyph glyph-name="asterisk" unicode="*" horiz-adv-x="548" 
d="M332 735v-120l-7 -24l29 15l139 37l18 -79l-139 -35l-21 2l17 -12l89 -89l-56 -59l-108 109l-8 22l-9 -23l-100 -100l-61 58l85 85l16 11h-21l-127 35l19 73l136 -39l27 -11l-7 24v120h89z" />
    <glyph glyph-name="plus" unicode="+" horiz-adv-x="755" 
d="M336 657h125v-267h261v-125h-261v-265h-125v265h-264v125h264v267z" />
    <glyph glyph-name="comma" unicode="," horiz-adv-x="236" 
d="M75 115h128l-129 -297h-96z" />
    <glyph glyph-name="hyphen" unicode="-" horiz-adv-x="481" 
d="M449 294v-85h-377v85h377z" />
    <glyph glyph-name="period" unicode="." horiz-adv-x="236" 
d="M72 116h131v-116h-131v116z" />
    <glyph glyph-name="slash" unicode="/" horiz-adv-x="528" 
d="M385 726h110l-314 -726h-109z" />
    <glyph glyph-name="zero" unicode="0" 
d="M393 743c223 -3 334 -171 333 -386c-1 -209 -114 -368 -347 -371c-240 -3 -335 177 -334 385c1 207 123 375 348 372zM168 365c0 -161 51 -293 217 -293c153 0 217 132 217 293c0 162 -60 293 -217 293c-158 0 -217 -131 -217 -293z" />
    <glyph glyph-name="one" unicode="1" 
d="M357 731h108v-731h-131v533h-150v95c67 0 107 0 147 29c21 16 26 38 26 74z" />
    <glyph glyph-name="two" unicode="2" 
d="M245 88h453v-89h-621v112l76 34c107 47 377 202 403 357c6 35 0 80 -32 110c-49 47 -138 53 -182 42c-45 -10 -91 -30 -114 -82c-11 -26 -16 -57 -12 -92l-126 19c1 73 25 151 107 196c92 52 288 59 382 4c79 -47 105 -109 105 -177c-2 -152 -128 -262 -310 -367
c-47 -27 -129 -67 -129 -67z" />
    <glyph glyph-name="three" unicode="3" 
d="M520 383c53 -7 131 -42 162 -117c20 -46 16 -109 -11 -151c-60 -94 -173 -120 -256 -125c-74 -5 -235 21 -304 108c-35 43 -46 90 -46 145l128 18c0 -48 0 -111 63 -155c46 -34 145 -41 206 -23c40 13 88 43 104 93c10 30 5 78 -10 102c-40 59 -89 64 -189 64h-115v86
h116c45 0 136 4 176 72c12 19 15 64 2 87c-30 57 -98 73 -148 76c-48 3 -125 -7 -168 -67c-18 -29 -20 -60 -23 -94l-124 22c8 69 28 131 109 176c93 50 268 55 367 7c62 -31 106 -75 116 -139c6 -39 -3 -85 -46 -127c-34 -33 -81 -52 -109 -58z" />
    <glyph glyph-name="four" unicode="4" 
d="M414 730h154v-456h161v-94h-162v-180h-115v181h-405v101zM455 649c0 0 -7 -18 -13 -30c-6 -13 -11 -19 -21 -34l-252 -310h283v302c1 38 5 53 8 71z" />
    <glyph glyph-name="five" unicode="5" 
d="M651 728v-85h-400l-42 -222c30 27 50 39 86 53c92 34 215 23 302 -37c74 -52 104 -126 103 -190c0 -77 -29 -151 -117 -210c-97 -66 -253 -65 -344 -30c-83 31 -143 98 -161 183l124 19c6 -26 11 -40 21 -59c39 -68 107 -84 162 -84c57 0 132 24 171 91
c26 48 26 122 -1 168c-43 70 -125 89 -178 87c-64 -2 -123 -29 -162 -105l-128 16l66 405h498z" />
    <glyph glyph-name="six" unicode="6" 
d="M680 574l-117 -18c-28 67 -66 101 -128 109c-44 5 -121 1 -174 -60c-44 -52 -66 -152 -66 -210c103 99 209 106 307 80c76 -20 164 -77 191 -164c21 -67 15 -154 -44 -221c-81 -94 -227 -114 -308 -100c-105 16 -183 60 -236 184c-47 111 -47 324 32 437
c80 114 189 137 289 131c98 -5 208 -44 254 -168zM290 379c-57 -33 -79 -87 -81 -131c-2 -47 15 -112 78 -150c59 -35 147 -30 198 -11c60 24 93 75 99 128c8 54 -6 108 -58 151c-55 46 -144 48 -196 30c-11 -4 -24 -8 -40 -17z" />
    <glyph glyph-name="seven" unicode="7" 
d="M73 730h620v-92s-226 -331 -404 -638h-136c237 414 415 639 415 639h-495v91z" />
    <glyph glyph-name="eight" unicode="8" 
d="M520 391c68 -20 151 -58 177 -148c13 -46 -2 -111 -41 -156c-88 -98 -255 -111 -350 -95c-76 12 -192 56 -234 156c-21 49 -19 105 14 153c34 48 97 80 144 93c-56 13 -126 56 -144 133c-9 42 4 91 47 135c90 91 253 92 339 73c59 -14 159 -58 187 -139
c16 -44 14 -90 -20 -131s-86 -69 -119 -74zM374 433c65 0 173 23 172 115c-1 94 -103 118 -167 119c-68 1 -174 -25 -172 -116c2 -89 104 -118 167 -118zM378 69c91 0 199 41 198 138c-1 90 -104 141 -194 141c-91 1 -200 -41 -199 -137c1 -93 104 -142 195 -142z" />
    <glyph glyph-name="nine" unicode="9" 
d="M85 162l118 18c27 -68 66 -102 127 -109c44 -5 122 -1 174 60c44 51 66 152 66 210c-103 -99 -209 -106 -307 -81c-76 21 -163 77 -191 165c-21 67 -14 153 44 221c82 94 228 113 309 100c105 -17 182 -61 235 -184c48 -111 48 -324 -31 -438
c-81 -114 -190 -136 -289 -130c-98 5 -208 44 -255 168zM475 357c58 33 80 86 82 131c2 47 -14 112 -79 150c-58 34 -147 30 -197 10c-61 -24 -94 -74 -100 -127c-7 -54 6 -108 59 -152c54 -45 144 -47 195 -29c12 4 25 8 40 17z" />
    <glyph glyph-name="colon" unicode=":" horiz-adv-x="236" 
d="M72 116h131v-116h-131v116zM72 504h131v-116h-131v116z" />
    <glyph glyph-name="semicolon" unicode=";" horiz-adv-x="236" 
d="M72 504h131v-116h-131v116zM93 115h127l-128 -297h-96z" />
    <glyph glyph-name="less" unicode="&#x3c;" horiz-adv-x="578" 
d="M72 389l473 177v-107l-362 -128l362 -127v-107l-473 176v116z" />
    <glyph glyph-name="equal" unicode="=" horiz-adv-x="892" 
d="M859 535v-125h-787v125h787zM859 245v-125h-787v125h787z" />
    <glyph glyph-name="greater" unicode="&#x3e;" horiz-adv-x="578" 
d="M545 273l-473 -176v107l362 127l-362 128v107l473 -177v-116z" />
    <glyph glyph-name="question" unicode="?" horiz-adv-x="727" 
d="M437 344v-161h-124v241h22c44 0 166 -1 213 69c18 26 23 67 12 92c-22 52 -64 69 -126 81c-40 7 -146 11 -198 -43c-28 -27 -39 -68 -37 -95l-127 21c11 85 50 141 136 181c90 43 292 33 391 -32c68 -46 95 -94 95 -157c0 -58 -45 -117 -92 -150
c-51 -35 -111 -42 -165 -47zM309 116h130v-116h-130v116z" />
    <glyph glyph-name="at" unicode="@" horiz-adv-x="935" 
d="M570 164c-46 -73 -97 -97 -158 -96c-44 0 -100 20 -132 73c-39 67 -26 164 12 237c42 84 121 138 194 144c51 3 104 -8 134 -79l19 61h121l-63 -225c-7 -25 -38 -107 -14 -133c10 -10 28 -13 52 -9c54 10 92 67 113 117c35 84 38 202 -25 289c-75 106 -230 128 -303 125
c-127 -8 -251 -56 -338 -212c-59 -107 -64 -274 -6 -380c69 -124 200 -172 305 -178c114 -6 228 27 340 96l26 -41c-187 -119 -419 -144 -575 -67c-154 76 -220 215 -230 343c-10 129 31 291 188 403c139 98 361 113 499 52c128 -54 178 -134 195 -257
c11 -79 -11 -236 -109 -312c-52 -40 -128 -57 -179 -38c-43 16 -60 41 -66 87zM386 200c0 -27 11 -48 33 -62c15 -10 40 -9 59 0c67 32 105 195 110 234c3 28 0 57 -21 72c-17 14 -50 15 -65 9c-70 -24 -115 -217 -116 -253z" />
    <glyph glyph-name="A" unicode="A" horiz-adv-x="899" 
d="M407 747h135l361 -756h-131l-104 219h-401l-104 -210h-129zM456 586l-142 -284h308l-129 284c-12 26 -14 53 -17 74h-3c-3 -21 -4 -47 -17 -74z" />
    <glyph glyph-name="B" unicode="B" horiz-adv-x="810" 
d="M72 747h386c100 0 207 1 264 -79c35 -50 45 -121 29 -171c-18 -58 -65 -95 -127 -110c43 -6 114 -33 151 -90c34 -50 34 -124 8 -175c-63 -120 -212 -122 -297 -122h-414v747zM202 335v-241h243c41 0 169 -7 210 64c18 31 20 75 0 107c-43 73 -135 70 -191 70h-262z
M202 652v-224h221c54 0 155 -8 197 62c17 27 18 67 0 95c-45 74 -153 67 -221 67h-197z" />
    <glyph glyph-name="C" unicode="C" horiz-adv-x="895" 
d="M887 519l-125 -18c-45 107 -109 145 -203 164c-90 16 -222 4 -310 -87c-74 -75 -89 -191 -70 -272c21 -95 73 -163 173 -202c87 -35 238 -37 322 22c57 40 78 84 92 136l132 -24c-24 -68 -65 -120 -111 -161c-101 -89 -223 -89 -292 -89c-109 0 -226 27 -312 95
c-117 92 -150 219 -142 325c7 105 60 208 184 285c142 89 359 82 494 13c72 -37 145 -102 168 -187z" />
    <glyph glyph-name="D" unicode="D" horiz-adv-x="873" 
d="M72 747h356c136 0 294 -33 395 -210c56 -97 58 -241 -4 -347c-97 -166 -249 -190 -354 -190h-393v747zM202 98h242c78 0 191 15 263 140c45 79 44 184 3 257c-75 132 -193 155 -294 155h-214v-552z" />
    <glyph glyph-name="E" unicode="E" horiz-adv-x="712" 
d="M72 747h607v-91h-477v-230h462v-91h-462v-244h492v-91h-622v747z" />
    <glyph glyph-name="F" unicode="F" horiz-adv-x="681" 
d="M672 747v-91h-470v-221h446v-90h-446v-345h-130v747h600z" />
    <glyph glyph-name="G" unicode="G" horiz-adv-x="883" 
d="M870 549l-134 -22c-47 101 -130 130 -212 140c-85 9 -218 -7 -297 -109c-63 -82 -68 -213 -36 -299c44 -109 137 -159 226 -176c73 -12 205 -1 274 81c43 47 49 90 49 148h-275v91h399v-404h-128l4 71c-74 -55 -162 -82 -268 -82c-74 0 -158 3 -235 44
c-57 30 -158 110 -187 245c-21 95 -12 231 69 336c49 64 127 114 215 133c81 16 185 13 237 7c95 -11 232 -64 299 -204z" />
    <glyph glyph-name="H" unicode="H" horiz-adv-x="846" 
d="M72 747h130v-315h481v315h130v-747h-130v335h-481v-335h-130v747z" />
    <glyph glyph-name="I" unicode="I" horiz-adv-x="235" 
d="M72 747h130v-747h-130v747z" />
    <glyph glyph-name="J" unicode="J" horiz-adv-x="694" 
d="M532 747h130v-477c0 -88 -2 -177 -105 -241c-96 -59 -319 -49 -394 -7c-122 66 -136 169 -139 206l130 34c0 -69 24 -127 88 -159c45 -23 166 -30 223 5c71 44 67 116 67 180v459z" />
    <glyph glyph-name="K" unicode="K" horiz-adv-x="829" 
d="M72 747h130v-328l433 328h178l-468 -350l493 -397h-179l-457 373v-373h-130v747z" />
    <glyph glyph-name="L" unicode="L" horiz-adv-x="686" 
d="M72 747h130v-648h462v-94h-592v742z" />
    <glyph glyph-name="M" unicode="M" horiz-adv-x="1045" 
d="M491 0l-276 585l-30 82s17 -66 17 -82v-585h-130v747h185s273 -581 275 -585c6 -14 7 -43 10 -72c3 29 5 59 10 72c4 7 275 585 275 585h185v-747h-129v585c0 15 16 82 16 82l-30 -82l-275 -585h-103z" />
    <glyph glyph-name="N" unicode="N" horiz-adv-x="920" 
d="M231 580c-13 17 -39 57 -45 67c4 -17 16 -59 16 -82v-575h-130v747h179l476 -588c9 -10 40 -63 46 -70c-4 19 -16 60 -16 84v574h130v-747h-175z" />
    <glyph glyph-name="O" unicode="O" horiz-adv-x="934" 
d="M423 755c78 8 305 9 427 -137c80 -97 92 -256 58 -361c-45 -135 -168 -219 -279 -248c-129 -34 -321 -48 -477 95c-85 78 -124 205 -108 329c15 107 79 217 202 277c71 35 140 41 177 45zM291 610c-97 -67 -120 -168 -118 -245c3 -83 34 -177 133 -236
c97 -62 235 -62 324 -21c101 46 145 133 160 214c16 80 -6 198 -88 272c-93 83 -232 83 -307 65c-30 -7 -77 -28 -104 -49z" />
    <glyph glyph-name="P" unicode="P" horiz-adv-x="774" 
d="M72 747h375c97 0 227 -5 295 -123c33 -58 29 -126 0 -177c-64 -114 -199 -118 -278 -118h-262v-329h-130v747zM202 648v-229h230c45 0 147 -9 190 69c17 28 18 67 0 98c-38 70 -135 62 -194 62h-226z" />
    <glyph glyph-name="Q" unicode="Q" horiz-adv-x="930" 
d="M829 129l119 -101l-80 -67l-118 103c-72 -48 -186 -76 -275 -76c-84 0 -172 17 -244 55c-131 70 -187 167 -199 274c-9 79 -10 221 105 332c47 46 118 77 187 95c57 14 199 23 306 0c128 -29 239 -101 277 -248c23 -90 30 -256 -78 -367zM279 613
c-98 -68 -122 -170 -120 -247c4 -84 34 -179 134 -239c99 -62 239 -62 328 -21c103 47 146 134 162 216c15 81 -6 200 -90 275c-93 84 -233 84 -309 66c-30 -8 -77 -29 -105 -50z" />
    <glyph glyph-name="R" unicode="R" horiz-adv-x="805" 
d="M486 747c93 0 190 -20 245 -103c31 -46 41 -118 19 -168c-34 -79 -119 -98 -141 -102c46 -3 80 -22 94 -30c57 -39 52 -120 52 -147v-63c0 -50 -4 -83 52 -134h-137c-44 50 -39 77 -39 116v39c0 37 2 104 -28 135c-34 35 -100 33 -117 33h-284v-323h-130v747h414z
M202 414h276c55 0 158 5 158 117c0 108 -93 118 -159 118h-275v-235z" />
    <glyph glyph-name="S" unicode="S" horiz-adv-x="813" 
d="M781 547l-133 -20c-19 87 -50 120 -139 142c-52 13 -215 18 -275 -51c-24 -26 -29 -61 -22 -86c16 -55 68 -68 145 -81l211 -36c60 -11 184 -32 223 -123c20 -45 20 -110 -10 -159c-57 -99 -217 -138 -287 -143c-82 -6 -297 -7 -402 118c-28 35 -46 82 -52 123l143 22
c12 -86 37 -129 129 -160c67 -23 233 -29 314 43c29 27 43 67 32 104c-16 59 -93 71 -142 81l-210 40c-89 17 -194 39 -226 137c-15 47 -7 111 40 164c102 113 340 103 440 86c107 -19 189 -78 221 -201z" />
    <glyph glyph-name="T" unicode="T" horiz-adv-x="757" 
d="M35 747h719v-108h-295v-639h-130v639h-294v108z" />
    <glyph glyph-name="U" unicode="U" horiz-adv-x="854" 
d="M72 747h130v-415c0 -60 -3 -169 91 -224c73 -41 232 -47 310 -2c96 56 88 168 88 229v412h130v-427c0 -91 3 -209 -140 -288c-116 -64 -362 -58 -479 10c-142 82 -130 199 -130 315v390z" />
    <glyph glyph-name="V" unicode="V" horiz-adv-x="891" 
d="M31 747h133l273 -578c16 -32 18 -64 20 -89h3c3 25 7 59 21 89l284 578h124l-368 -747h-133z" />
    <glyph glyph-name="W" unicode="W" horiz-adv-x="1267" 
d="M649 662h-3c-1 -22 -6 -49 -14 -74l-197 -588h-149l-252 747h119l198 -579c8 -26 9 -48 12 -86h3c3 37 4 64 15 94l191 571h151l192 -571c11 -34 12 -59 14 -94h3c4 36 4 61 12 86l198 579h119l-252 -747h-149l-196 588c-9 26 -13 52 -15 74z" />
    <glyph glyph-name="X" unicode="X" horiz-adv-x="883" 
d="M70 747h152l214 -241c20 -22 26 -35 31 -54c5 19 13 34 34 56l214 239h136l-313 -352l340 -395h-151l-244 280c-17 19 -22 30 -27 51c-7 -21 -14 -32 -30 -50l-246 -281h-142l346 391z" />
    <glyph glyph-name="Y" unicode="Y" horiz-adv-x="882" 
d="M28 747h145l247 -293c17 -22 23 -31 28 -48c6 21 8 28 25 48l263 293h143l-372 -410v-338h-129v339z" />
    <glyph glyph-name="Z" unicode="Z" horiz-adv-x="761" 
d="M72 747h656v-108l-511 -526s-10 -9 -27 -22c27 3 34 3 34 3h541v-95l-715 1v104l495 509l38 34c-23 -5 -41 -8 -41 -8h-470v108z" />
    <glyph glyph-name="bracketleft" unicode="[" horiz-adv-x="338" 
d="M72 821h234v-84h-125v-738h125v-84h-234v906z" />
    <glyph glyph-name="backslash" unicode="\" horiz-adv-x="528" 
d="M495 0h-109l-314 726h110z" />
    <glyph glyph-name="bracketright" unicode="]" horiz-adv-x="338" 
d="M306 -85h-234v84h125v738h-125v84h234v-906z" />
    <glyph glyph-name="asciicircum" unicode="^" horiz-adv-x="530" 
d="M247 743h75l175 -175h-102l-88 92c-16 16 -21 20 -25 32c-3 -7 -13 -16 -21 -23l-97 -97h-92z" />
    <glyph glyph-name="underscore" unicode="_" horiz-adv-x="560" 
d="M587 -144h-581v39h581v-39z" />
    <glyph glyph-name="grave" unicode="`" horiz-adv-x="308" 
d="M72 744h117l86 -176h-90z" />
    <glyph glyph-name="a" unicode="a" horiz-adv-x="604" 
d="M571 0h-113v55c-93 -83 -212 -72 -274 -60c-46 9 -109 51 -132 106c-13 32 -14 75 5 108c39 69 144 83 200 90l85 11c58 8 92 13 111 41c6 9 7 27 0 43c-13 29 -47 41 -79 48c-30 7 -117 9 -156 -24c-24 -22 -32 -44 -37 -72l-118 18c13 53 42 103 112 131
c77 31 256 30 330 -20c74 -49 66 -114 66 -181v-294zM325 235c-70 -11 -132 -17 -155 -61c-8 -16 -8 -36 -3 -50c13 -37 49 -49 78 -55c44 -9 124 0 172 41c45 40 41 91 41 142z" />
    <glyph glyph-name="b" unicode="b" horiz-adv-x="664" 
d="M72 735h113v-282c87 66 214 75 298 50c72 -22 146 -81 172 -168c21 -66 19 -165 -37 -237c-70 -92 -177 -111 -253 -111c-59 0 -119 15 -180 65v-52h-113v735zM200 332c-17 -38 -28 -133 19 -198c40 -55 109 -79 164 -75c52 4 112 38 143 100c29 58 26 143 -9 199
c-39 65 -101 86 -151 86c-69 0 -135 -39 -166 -112z" />
    <glyph glyph-name="c" unicode="c" horiz-adv-x="627" 
d="M621 346l-111 -19c-29 63 -51 94 -118 109c-50 12 -125 3 -172 -41c-56 -55 -62 -129 -53 -179c9 -53 43 -108 105 -135c42 -19 125 -21 168 7c40 23 65 61 73 97l118 -21c-36 -82 -107 -148 -184 -165c-76 -18 -235 -31 -327 60c-59 58 -86 138 -76 230
c9 79 51 153 133 196c86 44 244 40 327 -2c60 -31 94 -66 117 -137z" />
    <glyph glyph-name="d" unicode="d" horiz-adv-x="671" 
d="M638 0h-113v52c-61 -50 -121 -65 -180 -65c-76 0 -183 19 -253 111c-56 72 -58 171 -37 237c26 87 100 146 172 168c84 25 211 16 298 -50v282h113v-735zM344 444c-50 0 -113 -21 -152 -86c-35 -56 -37 -141 -8 -199c31 -62 91 -96 143 -100c55 -4 124 20 164 75
c47 65 36 160 19 198c-32 73 -97 112 -166 112z" />
    <glyph glyph-name="e" unicode="e" horiz-adv-x="610" 
d="M614 227h-457c2 -58 26 -113 95 -148c49 -24 130 -27 179 5c34 22 53 52 64 87l116 -20c-38 -99 -133 -149 -217 -160c-84 -14 -213 2 -295 99c-58 68 -69 181 -43 254c29 85 98 142 180 161c77 19 226 22 310 -72c57 -63 68 -136 68 -206zM430 419
c-51 34 -128 35 -179 12c-57 -25 -86 -82 -92 -125h336c-2 42 -26 87 -65 113z" />
    <glyph glyph-name="f" unicode="f" horiz-adv-x="346" 
d="M373 733v-80c-20 4 -88 17 -113 -23c-15 -25 -13 -82 -13 -128h125v-84h-125v-418h-113v418h-119v84h119v30c0 58 -6 149 74 188c40 20 119 20 165 13z" />
    <glyph glyph-name="g" unicode="g" horiz-adv-x="670" 
d="M524 450v52h113v-494c0 -74 4 -150 -79 -206c-90 -59 -261 -64 -353 -26c-77 32 -109 76 -133 157l122 19c6 -47 15 -92 77 -116c40 -15 155 -21 205 21c53 43 48 78 48 192c-75 -58 -202 -78 -299 -49c-85 26 -160 98 -178 192c-13 74 -6 167 69 241
c82 80 213 92 286 77c37 -7 84 -27 122 -60zM509 168c17 38 28 133 -19 198c-40 55 -109 79 -164 75c-52 -4 -112 -38 -143 -100c-29 -58 -27 -143 8 -199c39 -65 102 -86 152 -86c69 0 134 39 166 112z" />
    <glyph glyph-name="h" unicode="h" horiz-adv-x="624" 
d="M185 735v-282c62 63 222 85 316 35c100 -54 91 -154 91 -227v-261h-114v264c0 56 6 122 -55 160c-45 29 -120 20 -165 -6c-53 -32 -73 -81 -73 -148v-270h-113v735h113z" />
    <glyph glyph-name="i" unicode="i" horiz-adv-x="218" 
d="M74 735h113v-115h-113v115zM72 502h113v-502h-113v502z" />
    <glyph glyph-name="j" unicode="j" horiz-adv-x="218" 
d="M72 502h113v-563c0 -56 7 -127 -71 -161c-40 -18 -116 -16 -176 -7v77c22 -2 84 -7 112 17c24 21 22 69 22 92v545zM74 735h113v-115h-113v115z" />
    <glyph glyph-name="k" unicode="k" horiz-adv-x="624" 
d="M72 735h113v-447l253 214h154l-274 -228l316 -274h-167l-282 244v-244h-113v735z" />
    <glyph glyph-name="l" unicode="l" horiz-adv-x="218" 
d="M185 735v-735h-113v735h113z" />
    <glyph glyph-name="m" unicode="m" horiz-adv-x="984" 
d="M455 246c0 43 6 134 -54 169c-39 22 -106 19 -149 -6c-74 -43 -67 -135 -67 -192v-217c0 -1 -113 0 -113 0v502h113v-61c105 101 256 104 352 -20c101 125 254 104 317 63c88 -58 97 -142 97 -234v-250h-114v246c0 45 7 134 -53 169c-39 22 -106 19 -149 -6
c-74 -43 -67 -135 -67 -192v-217h-113v246z" />
    <glyph glyph-name="n" unicode="n" horiz-adv-x="627" 
d="M594 0h-114v259c0 57 6 121 -56 156c-46 26 -118 25 -172 -9c-73 -46 -67 -106 -67 -178v-228h-113v502h113v-58c90 83 232 90 316 43c82 -47 93 -135 93 -229v-258z" />
    <glyph glyph-name="o" unicode="o" horiz-adv-x="640" 
d="M295 512c85 10 208 3 289 -98c59 -74 72 -163 51 -238c-28 -96 -91 -149 -185 -176c-84 -24 -227 -22 -320 59c-72 61 -93 158 -87 224c6 71 40 146 138 197c39 21 79 28 114 32zM171 323c-19 -51 -12 -151 31 -201c52 -60 128 -69 182 -57c67 13 110 50 132 115
c19 53 11 147 -35 199c-58 65 -134 66 -186 54c-59 -14 -104 -52 -124 -110z" />
    <glyph glyph-name="p" unicode="p" horiz-adv-x="664" 
d="M72 502h113v-52c61 50 121 65 180 65c76 0 183 -19 253 -111c56 -72 58 -170 37 -237c-26 -87 -100 -146 -172 -168c-84 -25 -211 -15 -298 50v-282h-113v735zM366 56c50 0 112 21 151 86c35 56 38 141 9 199c-31 62 -91 96 -143 100c-55 4 -124 -20 -164 -75
c-47 -65 -36 -160 -19 -198c31 -73 97 -112 166 -112z" />
    <glyph glyph-name="q" unicode="q" horiz-adv-x="671" 
d="M638 -233h-113v282c-87 -65 -214 -75 -298 -50c-72 22 -146 81 -172 168c-21 67 -19 165 37 237c70 92 177 111 253 111c59 0 119 -15 180 -65v52h113v-735zM510 168c17 38 28 133 -19 198c-40 55 -109 79 -164 75c-52 -4 -112 -38 -143 -100c-29 -58 -27 -143 8 -199
c39 -65 102 -86 152 -86c69 0 134 39 166 112z" />
    <glyph glyph-name="r" unicode="r" horiz-adv-x="422" 
d="M409 502v-92c-43 5 -127 11 -182 -42c-46 -44 -42 -127 -42 -169v-199h-113v502h113v-70c58 58 147 81 224 70z" />
    <glyph glyph-name="s" unicode="s" horiz-adv-x="577" 
d="M565 357l-117 -17c-16 51 -31 81 -91 100c-41 14 -132 14 -170 -26c-13 -14 -17 -30 -12 -48c10 -34 48 -41 103 -50l101 -18c92 -16 165 -28 195 -101c11 -29 11 -69 -10 -106c-48 -81 -162 -100 -211 -103c-71 -5 -215 4 -284 98c-14 21 -32 48 -37 87l122 16
c19 -60 31 -99 100 -118c39 -11 149 -14 190 30c15 15 21 38 15 58c-11 40 -60 47 -122 57l-74 12c-84 15 -175 30 -203 116c-10 30 -5 70 27 106c70 75 251 73 319 56c75 -18 140 -73 159 -149z" />
    <glyph glyph-name="t" unicode="t" horiz-adv-x="369" 
d="M139 660h113v-158h125v-82h-125v-247c0 -31 -2 -75 35 -97c23 -13 60 -11 94 -5v-74c-61 -6 -155 -14 -203 27c-44 38 -39 107 -39 148v248h-118v82h118v158z" />
    <glyph glyph-name="u" unicode="u" horiz-adv-x="627" 
d="M72 502h113v-259c0 -57 -5 -121 57 -156c46 -26 118 -25 172 9c73 46 66 106 66 178v228h114v-502h-114v58c-87 -81 -231 -90 -315 -43c-83 47 -93 135 -93 229v258z" />
    <glyph glyph-name="v" unicode="v" horiz-adv-x="626" 
d="M29 502h121l160 -357c10 -24 12 -39 16 -63c4 25 6 40 17 64l158 356h115l-229 -502h-130z" />
    <glyph glyph-name="w" unicode="w" horiz-adv-x="938" 
d="M32 502h110l124 -346c7 -18 10 -28 15 -65c4 31 8 49 13 63l125 348h134l125 -356c7 -22 8 -32 13 -63c6 34 6 45 13 64l129 355h103l-185 -502h-129l-124 353c-10 29 -14 74 -14 74s-5 -45 -14 -71l-128 -356h-129z" />
    <glyph glyph-name="x" unicode="x" horiz-adv-x="583" 
d="M43 502h131l109 -133c15 -18 22 -28 27 -47c4 19 12 34 20 44l104 136h125l-189 -240l206 -262h-135l-122 153c-11 15 -19 26 -24 46c-4 -18 -10 -30 -24 -49l-115 -150h-126l201 261z" />
    <glyph glyph-name="y" unicode="y" horiz-adv-x="588" 
d="M30 502h118l147 -337c14 -33 16 -53 19 -73c3 22 3 41 15 71l142 339h111l-250 -586c-39 -92 -63 -138 -155 -153c-25 -3 -95 -2 -128 4v79c19 -3 118 -21 153 38c16 28 28 57 52 123z" />
    <glyph glyph-name="z" unicode="z" horiz-adv-x="573" 
d="M540 502v-92l-326 -315l-23 -19l30 4h331v-80h-502v83l327 316l17 17l-26 -4h-296v90h468z" />
    <glyph glyph-name="braceleft" unicode="{" horiz-adv-x="524" 
d="M491 723c-34 -8 -64 -12 -93 -29c-66 -36 -65 -95 -65 -149v-72c0 -161 -70 -186 -213 -213c55 -6 107 -13 153 -47c62 -46 62 -140 62 -181v-41c0 -113 23 -173 158 -188v-40c-59 0 -122 8 -166 36c-85 56 -85 120 -85 193v71c0 126 -52 157 -170 174v50
c41 5 83 14 114 35c61 43 56 93 56 142v80c0 55 -3 101 38 146c55 61 154 70 211 72v-39z" />
    <glyph glyph-name="bar" unicode="|" horiz-adv-x="153" 
d="M120 -104h-48v901h48v-901z" />
    <glyph glyph-name="braceright" unicode="}" horiz-adv-x="524" 
d="M72 762c57 -2 155 -11 211 -72c41 -45 38 -91 38 -146v-80c0 -49 -5 -99 56 -142c30 -21 73 -30 114 -35v-50c-119 -17 -170 -48 -170 -174v-71c0 -73 0 -137 -85 -193c-45 -28 -107 -36 -166 -36v40c135 15 157 75 157 188v41c0 41 0 135 63 181c45 34 98 41 152 47
c-143 27 -213 52 -213 213v72c0 54 1 113 -64 149c-29 17 -59 21 -93 29v39z" />
    <glyph glyph-name="asciitilde" unicode="~" horiz-adv-x="487" 
d="M454 687v-81c-75 -49 -101 -45 -182 -16l-26 9c-83 29 -95 27 -174 -22v75c78 47 104 45 183 17l26 -10c77 -27 103 -31 173 28z" />
    <glyph glyph-name="Adieresis" unicode="&#xc4;" horiz-adv-x="899" 
d="M405 747h135l361 -756h-131l-104 219h-401l-105 -210h-128zM454 586l-142 -284h308l-129 284c-12 26 -14 53 -17 74h-3c-3 -21 -4 -47 -17 -74zM282 934h112v-108h-112v108zM545 934h112v-108h-112v108z" />
    <glyph glyph-name="Aring" unicode="&#xc5;" horiz-adv-x="899" 
d="M409 747h135l361 -756h-131l-104 219h-400l-105 -210h-129zM458 586l-142 -284h308l-129 284c-11 26 -14 53 -17 74h-3c-3 -21 -4 -47 -17 -74zM350 936c2 69 62 106 126 106c67 0 123 -42 123 -110c0 -69 -61 -106 -127 -106s-123 42 -122 110zM467 861
c41 -3 78 27 81 68s-25 77 -67 80c-41 3 -78 -25 -81 -67c-3 -41 26 -78 67 -81z" />
    <glyph glyph-name="Ccedilla" unicode="&#xc7;" horiz-adv-x="895" 
d="M452 -10c-94 2 -195 35 -269 93c-117 92 -150 219 -142 325c7 105 60 208 184 285c142 89 359 82 494 13c72 -37 145 -102 168 -187l-125 -18c-45 107 -109 145 -203 164c-90 16 -222 4 -310 -87c-74 -75 -89 -191 -70 -272c21 -95 73 -163 173 -202
c87 -35 238 -37 322 22c57 40 78 84 92 136l132 -24c-24 -68 -65 -120 -111 -161c-98 -87 -217 -89 -286 -89v-21c40 -4 85 -17 107 -67c10 -23 11 -57 -4 -86c-20 -36 -66 -56 -99 -56h-53v44c27 0 79 -5 103 30c10 16 11 39 3 55c-16 28 -38 40 -71 40
c-13 0 -23 -1 -35 -1v64z" />
    <glyph glyph-name="Eacute" unicode="&#xc9;" horiz-adv-x="712" 
d="M72 747h607v-91h-477v-230h462v-91h-462v-244h492v-91h-622v747zM342 827h-90l85 176h118z" />
    <glyph glyph-name="Ntilde" unicode="&#xd1;" horiz-adv-x="920" 
d="M231 591c-13 16 -39 56 -45 66c4 -17 16 -58 16 -82v-575h-130v747h179l476 -588c9 -10 40 -62 46 -69c-4 18 -16 59 -16 83v574h130v-747h-175zM704 944v-81c-75 -49 -101 -45 -182 -16l-26 9c-83 29 -95 27 -174 -22v75c78 47 104 45 183 17l26 -9
c77 -28 103 -32 173 27z" />
    <glyph glyph-name="Odieresis" unicode="&#xd6;" horiz-adv-x="934" 
d="M423 755c78 8 305 9 427 -137c80 -97 92 -256 58 -361c-45 -135 -168 -219 -279 -248c-129 -34 -321 -48 -477 95c-85 78 -124 205 -108 329c15 107 79 217 202 277c71 35 140 41 177 45zM291 610c-97 -67 -120 -168 -118 -245c3 -83 34 -177 133 -236
c97 -62 235 -62 324 -21c101 46 145 133 160 214c16 80 -6 198 -88 272c-93 83 -232 83 -307 65c-30 -7 -77 -28 -104 -49zM264 934h113v-108h-113v108zM528 934h112v-108h-112v108z" />
    <glyph glyph-name="Udieresis" unicode="&#xdc;" horiz-adv-x="854" 
d="M72 747h130v-415c0 -60 -3 -169 91 -224c73 -41 232 -47 310 -2c96 56 88 168 88 229v412h130v-427c0 -91 3 -209 -140 -288c-116 -64 -362 -58 -479 10c-142 82 -130 199 -130 315v390zM249 934h112v-108h-112v108zM512 934h112v-108h-112v108z" />
    <glyph glyph-name="aacute" unicode="&#xe1;" horiz-adv-x="604" 
d="M571 0h-113v55c-93 -83 -212 -72 -274 -60c-46 9 -109 51 -132 106c-13 32 -14 75 5 108c39 69 144 83 200 90l85 11c58 8 92 13 111 41c6 9 7 27 0 43c-13 29 -47 41 -79 48c-30 7 -117 9 -156 -24c-24 -22 -32 -44 -37 -72l-118 18c13 53 42 103 112 131
c77 31 256 30 330 -20c74 -49 66 -114 66 -181v-294zM325 235c-70 -11 -132 -17 -155 -61c-8 -16 -8 -36 -3 -50c13 -37 49 -49 78 -55c44 -9 124 0 172 41c45 40 41 91 41 142zM279 568h-90l86 176h117z" />
    <glyph glyph-name="agrave" unicode="&#xe0;" horiz-adv-x="604" 
d="M571 0h-113v55c-93 -83 -212 -72 -274 -60c-46 9 -109 51 -132 106c-13 32 -14 75 5 108c39 69 144 83 200 90l85 11c58 8 92 13 111 41c6 9 7 27 0 43c-13 29 -47 41 -79 48c-30 7 -117 9 -156 -24c-24 -22 -32 -44 -37 -72l-118 18c13 53 42 103 112 131
c77 31 256 30 330 -20c74 -49 66 -114 66 -181v-294zM325 235c-70 -11 -132 -17 -155 -61c-8 -16 -8 -36 -3 -50c13 -37 49 -49 78 -55c44 -9 124 0 172 41c45 40 41 91 41 142zM221 743h117l86 -176h-90z" />
    <glyph glyph-name="acircumflex" unicode="&#xe2;" horiz-adv-x="604" 
d="M571 0h-113v55c-93 -83 -212 -72 -274 -60c-46 9 -109 51 -132 106c-13 32 -14 75 5 108c39 69 144 83 200 90l85 11c58 8 92 13 111 41c6 9 7 27 0 43c-13 29 -47 41 -79 48c-30 7 -117 9 -156 -24c-24 -22 -32 -44 -37 -72l-118 18c13 53 42 103 112 131
c77 31 256 30 330 -20c74 -49 66 -114 66 -181v-294zM325 235c-70 -11 -132 -17 -155 -61c-8 -16 -8 -36 -3 -50c13 -37 49 -49 78 -55c44 -9 124 0 172 41c45 40 41 91 41 142zM292 743h75l175 -175h-102l-88 92c-16 16 -21 20 -25 32c-3 -7 -13 -16 -20 -23l-98 -97h-92z
" />
    <glyph glyph-name="adieresis" unicode="&#xe4;" horiz-adv-x="604" 
d="M571 0h-113v55c-93 -83 -212 -72 -274 -60c-46 9 -109 51 -132 106c-13 32 -14 75 5 108c39 69 144 83 200 90l85 11c58 8 92 13 111 41c6 9 7 27 0 43c-13 29 -47 41 -79 48c-30 7 -117 9 -156 -24c-24 -22 -32 -44 -37 -72l-118 18c13 53 42 103 112 131
c77 31 256 30 330 -20c74 -49 66 -114 66 -181v-294zM325 235c-70 -11 -132 -17 -155 -61c-8 -16 -8 -36 -3 -50c13 -37 49 -49 78 -55c44 -9 124 0 172 41c45 40 41 91 41 142zM108 676h112v-108h-112v108zM371 676h113v-108h-113v108z" />
    <glyph glyph-name="atilde" unicode="&#xe3;" horiz-adv-x="604" 
d="M571 0h-113v55c-93 -83 -212 -72 -274 -60c-46 9 -109 51 -132 106c-13 32 -14 75 5 108c39 69 144 83 200 90l85 11c58 8 92 13 111 41c6 9 7 27 0 43c-13 29 -47 41 -79 48c-30 7 -117 9 -156 -24c-24 -22 -32 -44 -37 -72l-118 18c13 53 42 103 112 131
c77 31 256 30 330 -20c74 -49 66 -114 66 -181v-294zM325 235c-70 -11 -132 -17 -155 -61c-8 -16 -8 -36 -3 -50c13 -37 49 -49 78 -55c44 -9 124 0 172 41c45 40 41 91 41 142zM513 685v-81c-75 -49 -100 -45 -182 -17l-25 10c-84 29 -95 26 -174 -22v75
c78 47 104 44 183 17l26 -10c77 -27 102 -31 172 28z" />
    <glyph glyph-name="aring" unicode="&#xe5;" horiz-adv-x="604" 
d="M571 0h-113v55c-93 -83 -212 -72 -274 -60c-46 9 -109 51 -132 106c-13 32 -14 75 5 108c39 69 144 83 200 90l85 11c58 8 92 13 111 41c6 9 7 27 0 43c-13 29 -47 41 -79 48c-30 7 -117 9 -156 -24c-24 -22 -32 -44 -37 -72l-118 18c13 53 42 103 112 131
c77 31 256 30 330 -20c74 -49 66 -114 66 -181v-294zM325 235c-70 -11 -132 -17 -155 -61c-8 -16 -8 -36 -3 -50c13 -37 49 -49 78 -55c44 -9 124 0 172 41c45 40 41 91 41 142zM216 677c2 69 62 106 127 106c66 0 122 -42 122 -110c0 -69 -61 -106 -127 -106
c-65 0 -123 42 -122 110zM333 602c41 -3 79 27 82 68s-26 77 -67 80s-78 -26 -82 -67c-3 -41 26 -78 67 -81z" />
    <glyph glyph-name="ccedilla" unicode="&#xe7;" horiz-adv-x="627" 
d="M307 -12c-63 0 -136 21 -187 71c-59 58 -86 138 -76 230c9 79 51 153 133 196c86 44 244 40 327 -2c60 -31 94 -66 117 -137l-111 -19c-29 63 -51 94 -118 109c-50 12 -125 3 -172 -41c-56 -55 -62 -129 -53 -179c9 -53 43 -108 105 -135c42 -19 125 -21 168 7
c40 23 65 61 73 97l118 -21c-36 -82 -107 -148 -184 -165c-26 -6 -61 -12 -100 -12v-31c32 0 68 -15 85 -54c8 -18 9 -46 -3 -69c-15 -28 -52 -44 -79 -44h-43v35c22 0 63 -4 82 24c8 12 9 32 3 44c-12 22 -31 32 -57 32c-10 0 -18 -1 -28 -1v65z" />
    <glyph glyph-name="eacute" unicode="&#xe9;" horiz-adv-x="610" 
d="M614 227h-457c2 -58 26 -113 95 -148c49 -24 130 -27 179 5c34 22 53 52 64 87l116 -20c-38 -99 -133 -149 -217 -160c-84 -14 -213 2 -295 99c-58 68 -69 181 -43 254c29 85 98 142 180 161c77 19 226 22 310 -72c57 -63 68 -136 68 -206zM430 419
c-51 34 -128 35 -179 12c-57 -25 -86 -82 -92 -125h336c-2 42 -26 87 -65 113zM283 568h-90l86 176h117z" />
    <glyph glyph-name="egrave" unicode="&#xe8;" horiz-adv-x="610" 
d="M614 227h-457c2 -58 26 -113 95 -148c49 -24 130 -27 179 5c34 22 53 52 64 87l116 -20c-38 -99 -133 -149 -217 -160c-84 -14 -213 2 -295 99c-58 68 -69 181 -43 254c29 85 98 142 180 161c77 19 226 22 310 -72c57 -63 68 -136 68 -206zM430 419
c-51 34 -128 35 -179 12c-57 -25 -86 -82 -92 -125h336c-2 42 -26 87 -65 113zM238 743h117l85 -176h-89z" />
    <glyph glyph-name="ecircumflex" unicode="&#xea;" horiz-adv-x="610" 
d="M614 227h-457c2 -58 26 -113 95 -148c49 -24 130 -27 179 5c34 22 53 52 64 87l116 -20c-38 -99 -133 -149 -217 -160c-84 -14 -213 2 -295 99c-58 68 -69 181 -43 254c29 85 98 142 180 161c77 19 226 22 310 -72c57 -63 68 -136 68 -206zM430 419
c-51 34 -128 35 -179 12c-57 -25 -86 -82 -92 -125h336c-2 42 -26 87 -65 113zM277 743h75l175 -175h-102l-89 92c-15 16 -20 20 -24 32c-3 -7 -14 -16 -21 -23l-98 -97h-91z" />
    <glyph glyph-name="edieresis" unicode="&#xeb;" horiz-adv-x="610" 
d="M614 227h-457c2 -58 26 -113 95 -148c49 -24 130 -27 179 5c34 22 53 52 64 87l116 -20c-38 -99 -133 -149 -217 -160c-84 -14 -213 2 -295 99c-58 68 -69 181 -43 254c29 85 98 142 180 161c77 19 226 22 310 -72c57 -63 68 -136 68 -206zM430 419
c-51 34 -128 35 -179 12c-57 -25 -86 -82 -92 -125h336c-2 42 -26 87 -65 113zM142 676h112v-108h-112v108zM405 676h112v-108h-112v108z" />
    <glyph glyph-name="iacute" unicode="&#xed;" horiz-adv-x="218" 
d="M72 502h113v-502h-113v502zM139 568h-90l86 176h117z" />
    <glyph glyph-name="igrave" unicode="&#xec;" horiz-adv-x="218" 
d="M72 502h113v-502h-113v502zM1 743h117l86 -176h-90z" />
    <glyph glyph-name="icircumflex" unicode="&#xee;" horiz-adv-x="218" 
d="M72 502h113v-502h-113v502zM98 743h75l175 -175h-102l-89 92c-15 16 -20 20 -24 32c-3 -7 -14 -16 -21 -23l-98 -97h-91z" />
    <glyph glyph-name="idieresis" unicode="&#xef;" horiz-adv-x="218" 
d="M72 502h113v-502h-113v502zM-56 676h113v-108h-113v108zM208 676h112v-108h-112v108z" />
    <glyph glyph-name="ntilde" unicode="&#xf1;" horiz-adv-x="627" 
d="M594 0h-114v259c0 57 6 121 -56 156c-46 26 -118 25 -172 -9c-73 -46 -67 -106 -67 -178v-228h-113v502h113v-58c90 83 232 90 316 43c82 -47 93 -135 93 -229v-258zM517 686v-81c-75 -49 -100 -45 -182 -17l-25 10c-84 29 -95 26 -174 -22v75c78 47 104 44 183 17
l26 -10c77 -27 103 -31 172 28z" />
    <glyph glyph-name="oacute" unicode="&#xf3;" horiz-adv-x="640" 
d="M295 512c85 10 208 3 289 -98c59 -74 72 -163 51 -238c-28 -96 -91 -149 -185 -176c-84 -24 -227 -22 -320 59c-72 61 -93 158 -87 224c6 71 40 146 138 197c39 21 79 28 114 32zM171 323c-19 -51 -12 -151 31 -201c52 -60 128 -69 182 -57c67 13 110 50 132 115
c19 53 11 147 -35 199c-58 65 -134 66 -186 54c-59 -14 -104 -52 -124 -110zM293 568h-89l85 176h117z" />
    <glyph glyph-name="ograve" unicode="&#xf2;" horiz-adv-x="640" 
d="M295 512c85 10 208 3 289 -98c59 -74 72 -163 51 -238c-28 -96 -91 -149 -185 -176c-84 -24 -227 -22 -320 59c-72 61 -93 158 -87 224c6 71 40 146 138 197c39 21 79 28 114 32zM171 323c-19 -51 -12 -151 31 -201c52 -60 128 -69 182 -57c67 13 110 50 132 115
c19 53 11 147 -35 199c-58 65 -134 66 -186 54c-59 -14 -104 -52 -124 -110zM231 743h118l85 -176h-89z" />
    <glyph glyph-name="ocircumflex" unicode="&#xf4;" horiz-adv-x="640" 
d="M295 512c85 10 208 3 289 -98c59 -74 72 -163 51 -238c-28 -96 -91 -149 -185 -176c-84 -24 -227 -22 -320 59c-72 61 -93 158 -87 224c6 71 40 146 138 197c39 21 79 28 114 32zM171 323c-19 -51 -12 -151 31 -201c52 -60 128 -69 182 -57c67 13 110 50 132 115
c19 53 11 147 -35 199c-58 65 -134 66 -186 54c-59 -14 -104 -52 -124 -110zM299 743h75l175 -175h-101l-89 92c-15 16 -21 20 -25 32c-3 -7 -13 -16 -20 -23l-98 -97h-92z" />
    <glyph glyph-name="odieresis" unicode="&#xf6;" horiz-adv-x="640" 
d="M295 512c85 10 208 3 289 -98c59 -74 72 -163 51 -238c-28 -96 -91 -149 -185 -176c-84 -24 -227 -22 -320 59c-72 61 -93 158 -87 224c6 71 40 146 138 197c39 21 79 28 114 32zM171 323c-19 -51 -12 -151 31 -201c52 -60 128 -69 182 -57c67 13 110 50 132 115
c19 53 11 147 -35 199c-58 65 -134 66 -186 54c-59 -14 -104 -52 -124 -110zM156 676h113v-108h-113v108zM420 676h112v-108h-112v108z" />
    <glyph glyph-name="otilde" unicode="&#xf5;" horiz-adv-x="640" 
d="M295 512c85 10 208 3 289 -98c59 -74 72 -163 51 -238c-28 -96 -91 -149 -185 -176c-84 -24 -227 -22 -320 59c-72 61 -93 158 -87 224c6 71 40 146 138 197c39 21 79 28 114 32zM171 323c-19 -51 -12 -151 31 -201c52 -60 128 -69 182 -57c67 13 110 50 132 115
c19 53 11 147 -35 199c-58 65 -134 66 -186 54c-59 -14 -104 -52 -124 -110zM531 686v-81c-75 -49 -101 -45 -182 -17l-26 10c-83 29 -95 26 -174 -22v75c78 47 104 44 183 17l26 -10c77 -27 103 -31 173 28z" />
    <glyph glyph-name="uacute" unicode="&#xfa;" horiz-adv-x="627" 
d="M72 502h113v-259c0 -57 -5 -121 57 -156c46 -26 118 -25 172 9c73 46 66 106 66 178v228h114v-502h-114v58c-87 -81 -231 -90 -315 -43c-83 47 -93 135 -93 229v258zM291 568h-89l85 176h117z" />
    <glyph glyph-name="ugrave" unicode="&#xf9;" horiz-adv-x="627" 
d="M72 502h113v-259c0 -57 -5 -121 57 -156c46 -26 118 -25 172 9c73 46 66 106 66 178v228h114v-502h-114v58c-87 -81 -231 -90 -315 -43c-83 47 -93 135 -93 229v258zM260 743h118l85 -176h-90z" />
    <glyph glyph-name="ucircumflex" unicode="&#xfb;" horiz-adv-x="627" 
d="M72 502h113v-259c0 -57 -5 -121 57 -156c46 -26 118 -25 172 9c73 46 66 106 66 178v228h114v-502h-114v58c-87 -81 -231 -90 -315 -43c-83 47 -93 135 -93 229v258zM300 743h76l174 -175h-101l-89 92c-15 16 -20 20 -25 32c-3 -7 -13 -16 -20 -23l-98 -97h-91z" />
    <glyph glyph-name="udieresis" unicode="&#xfc;" horiz-adv-x="627" 
d="M72 502h113v-259c0 -57 -5 -121 57 -156c46 -26 118 -25 172 9c73 46 66 106 66 178v228h114v-502h-114v58c-87 -81 -231 -90 -315 -43c-83 47 -93 135 -93 229v258zM144 676h112v-108h-112v108zM407 676h113v-108h-113v108z" />
    <glyph glyph-name="dagger" unicode="&#x2020;" horiz-adv-x="457" 
d="M192 737h109v-197h123v-82h-123v-681h-109v681h-120v82h120v197z" />
    <glyph glyph-name="degree" unicode="&#xb0;" horiz-adv-x="460" 
d="M326 527c41 -12 91 -34 106 -89c8 -28 0 -67 -24 -93c-53 -59 -153 -67 -210 -58c-45 8 -115 34 -140 95c-13 28 -12 62 9 91c19 29 57 48 86 56c-34 8 -76 33 -86 79c-6 26 1 56 28 81c53 55 151 56 203 45c35 -9 95 -35 112 -84c10 -27 9 -54 -12 -79
c-20 -25 -51 -41 -72 -44zM240 552c38 0 103 14 103 69c-1 57 -62 70 -101 71c-41 1 -104 -14 -103 -69c1 -53 62 -71 101 -71zM241 333c55 0 120 25 119 84c0 54 -62 84 -116 84c-55 1 -121 -25 -120 -82c2 -56 63 -86 117 -86z" />
    <glyph glyph-name="cent" unicode="&#xa2;" horiz-adv-x="627" 
d="M376 644c42 -3 94 -14 128 -32c60 -31 94 -66 117 -137l-111 -18c-29 63 -54 95 -118 109c-5 1 -16 3 -16 3v-371c20 1 47 9 64 20c40 23 65 61 73 97l118 -22c-36 -81 -107 -147 -184 -164c-19 -5 -43 -9 -71 -12v-84h-66v83c-61 2 -139 22 -190 72
c-59 59 -86 138 -76 231c9 79 51 153 133 195c36 19 90 30 133 31v88h66v-89zM310 567c-32 -5 -65 -19 -90 -42c-56 -56 -62 -129 -53 -179c9 -54 43 -108 105 -135c10 -5 26 -9 38 -11v367z" />
    <glyph glyph-name="sterling" unicode="&#xa3;" horiz-adv-x="741" 
d="M660 730v-86c-134 20 -181 7 -242 -141l-22 -51h214v-90h-252l-105 -245l-19 -29l23 5h451v-93h-634l154 362h-159v90h198l33 79c56 134 94 199 236 209c37 2 79 0 124 -10z" />
    <glyph glyph-name="section" unicode="&#xa7;" horiz-adv-x="533" 
d="M388 727v-71c-39 12 -109 21 -143 -7c-11 -9 -22 -26 -21 -44c1 -35 39 -73 85 -115l104 -99c89 -82 137 -136 120 -227c-11 -57 -41 -87 -103 -107c-9 -4 -20 -6 -42 -12c63 -66 95 -110 74 -176c-18 -52 -65 -86 -119 -100s-126 -11 -191 5v82c32 -11 130 -31 174 1
c15 11 25 28 26 48c2 33 -38 74 -79 114l-124 121c-78 76 -120 131 -106 208c9 49 39 85 94 106c23 9 41 13 50 16c-41 37 -87 106 -74 165c11 51 51 78 103 93c45 15 119 14 172 -1zM394 122c30 20 38 49 37 69c-3 66 -151 193 -175 213c-10 10 -18 17 -18 17
s-22 -9 -36 -17c-35 -17 -51 -37 -55 -64c-7 -55 72 -129 125 -182l56 -56c38 5 54 12 66 20z" />
    <glyph glyph-name="bullet" unicode="&#x2022;" horiz-adv-x="236" 
d="M72 313h131v-116h-131v116z" />
    <glyph glyph-name="germandbls" unicode="&#xdf;" horiz-adv-x="648" 
d="M466 434c60 -16 133 -52 162 -131c22 -61 14 -137 -28 -200c-65 -95 -172 -114 -252 -113c-17 0 -52 1 -83 6v80c53 -7 157 -11 224 54c37 36 44 99 36 136c-13 51 -41 82 -96 103c-50 21 -106 22 -164 21v80c35 0 152 -3 193 54c12 16 17 39 9 63c-10 33 -43 58 -77 69
c-43 14 -119 13 -162 -18c-50 -38 -42 -100 -42 -141v-497h-114v491c0 66 -6 144 71 201c73 54 235 52 302 31c49 -14 113 -50 133 -108c14 -35 12 -74 -11 -109c-25 -39 -63 -59 -101 -72z" />
    <glyph glyph-name="trademark" unicode="&#x2122;" horiz-adv-x="391" 
d="M242 677c24 -1 56 -8 77 -19c36 -18 55 -40 70 -82l-67 -11c-16 38 -32 57 -71 66c-3 0 -9 2 -9 2v-224c12 1 28 6 39 13c24 13 38 36 43 57l71 -12c-19 -40 -54 -80 -111 -99c-10 -3 -25 -5 -42 -7v-50h-40v50c-28 0 -84 12 -114 43c-35 36 -51 83 -45 138
c5 48 30 92 79 117c22 12 55 18 80 19v52h40v-53zM202 631c-19 -3 -38 -11 -54 -25c-34 -34 -37 -77 -32 -108c5 -32 26 -65 63 -80c6 -3 16 -6 23 -8v221z" />
    <glyph glyph-name="acute" unicode="&#xb4;" horiz-adv-x="308" 
d="M162 568h-90l85 176h118z" />
    <glyph glyph-name="dieresis" unicode="&#xa8;" horiz-adv-x="480" 
d="M72 676h112v-108h-112v108zM335 676h113v-108h-113v108z" />
    <glyph glyph-name="notequal" unicode="&#x2260;" horiz-adv-x="329" 
d="M200 443h-128l129 298h95z" />
    <glyph glyph-name="AE" unicode="&#xc6;" horiz-adv-x="1229" 
d="M654 -1v252h-311l-190 -252l-137 1l570 747h611v-91h-415v-230h399v-91h-399v-244h430v-91zM413 344h241v322z" />
    <glyph glyph-name="Oslash" unicode="&#xd8;" horiz-adv-x="934" 
d="M782 679l61 57h92l-106 -94c91 -93 114 -254 83 -372c-30 -110 -130 -210 -254 -251c-153 -51 -321 -44 -456 50l-76 -69h-90l117 107c-90 86 -130 250 -105 356c29 120 102 217 237 263c129 45 337 55 497 -47zM535 666c-108 15 -247 -17 -320 -133
c-75 -119 -41 -284 23 -349l456 416c-55 46 -121 60 -159 66zM283 144c43 -41 170 -81 277 -59c120 26 196 102 225 215c24 92 -7 210 -50 256z" />
    <glyph glyph-name="infinity" unicode="&#x221e;" horiz-adv-x="588" 
d="M28 502h118l147 -337c14 -33 16 -53 19 -73c3 22 3 41 15 71l142 339h111l-250 -586c-39 -92 -64 -138 -155 -153c-25 -3 -95 -2 -128 4v79c19 -3 118 -21 153 38c16 28 28 57 52 123zM253 568h-89l85 176h117z" />
    <glyph glyph-name="plusminus" unicode="&#xb1;" horiz-adv-x="510" 
d="M200 443h-128l129 298h95zM381 443h-128l129 298h95z" />
    <glyph glyph-name="lessequal" unicode="&#x2264;" horiz-adv-x="734" 
d="M628 598h-126c-28 60 -98 81 -151 79c-38 0 -103 -8 -134 -63c-12 -21 -13 -57 0 -81c41 -68 151 -66 195 -66h98v72h123v-72h68v-82h-68v-386h-123v386h-79c-51 0 -187 5 -244 -76c-27 -38 -29 -83 -17 -124c14 -50 52 -85 118 -101c37 -9 76 -6 143 -2v-83
c-79 -4 -268 -27 -356 106c-39 60 -46 144 -17 204c37 80 119 113 177 123c-63 6 -131 43 -144 128c-8 44 10 97 65 139c88 65 276 61 367 17c50 -26 85 -61 105 -118z" />
    <glyph glyph-name="greaterequal" unicode="&#x2265;" horiz-adv-x="771" 
d="M72 115h131v-116h-131v116zM340 115h130v-116h-130v116zM607 115h131v-116h-131v116z" />
    <glyph glyph-name="partialdiff" unicode="&#x2202;" horiz-adv-x="837" 
d="M208 727h76v-379h-87v265h-90v54c28 0 70 -3 90 18c13 15 11 29 11 42zM668 725h97l-609 -725h-96zM594 376h106v-221h78v-65h-78v-95h-86v95h-214v57zM501 155h113v109c0 16 4 28 9 45c-19 -37 -18 -36 -82 -108z" />
    <glyph glyph-name="summation" unicode="&#x2211;" horiz-adv-x="837" 
d="M572 49c15 3 36 8 36 8h186v-65h-339v70c81 38 234 113 245 190c2 18 -1 35 -17 49c-19 18 -50 22 -74 16c-35 -9 -52 -45 -61 -75l-90 14c7 36 36 88 95 113c51 22 156 16 201 -21c32 -26 44 -60 40 -95c-8 -77 -103 -131 -206 -193zM182 727h76v-379h-87v265h-90v54
c28 0 70 -3 90 18c13 15 11 29 11 42zM642 725h98l-609 -725h-97z" />
    <glyph glyph-name="pi" unicode="&#x3c0;" horiz-adv-x="460" 
d="M269 729h92v-273h97v-57h-98v-108h-69v109h-243v61zM292 680c-5 -16 -10 -25 -19 -37l-152 -187h170v182c0 19 1 27 5 42h-4z" />
    <glyph glyph-name="integral" unicode="&#x222b;" horiz-adv-x="837" 
d="M307 546c30 -7 71 -25 82 -71c6 -24 -2 -60 -30 -87c-52 -47 -154 -54 -213 -33c-66 23 -99 71 -104 121l91 13c2 -31 9 -61 43 -77c28 -14 71 -12 98 4c17 10 27 26 26 45c-1 14 -7 29 -31 42c-26 14 -89 14 -121 14v61c86 0 124 -4 140 25c5 9 6 26 -1 39
c-10 18 -31 25 -50 28c-22 3 -55 0 -77 -18c-12 -10 -22 -28 -22 -50l-89 14c7 33 35 83 85 102c50 21 141 24 191 -9c39 -26 52 -49 55 -79c2 -20 -6 -44 -25 -60c-18 -14 -35 -22 -48 -24zM708 725h98l-609 -725h-97zM634 376h106v-221h78v-65h-78v-95h-86v95h-214v57z
M541 155h113v109c0 16 4 28 10 45c-20 -37 -19 -36 -83 -108z" />
    <glyph glyph-name="ordfeminine" unicode="&#xaa;" horiz-adv-x="460" 
d="M71 388l70 11c16 -40 40 -61 77 -65c26 -3 72 -1 104 35c27 31 39 92 39 127c-62 -60 -124 -64 -183 -48c-46 12 -99 46 -115 98c-13 40 -8 92 27 133c48 57 135 68 185 60c62 -10 109 -36 141 -110c28 -67 28 -195 -19 -263c-48 -69 -114 -82 -174 -78
c-58 3 -124 26 -152 100zM305 505c35 21 47 53 49 79c1 28 -8 67 -47 90c-35 20 -89 18 -119 6c-37 -14 -56 -44 -59 -76c-6 -32 3 -65 35 -91c33 -27 86 -28 117 -18c6 3 14 5 24 10z" />
    <glyph glyph-name="ordmasculine" unicode="&#xba;" horiz-adv-x="460" 
d="M249 738c134 -2 201 -103 200 -232c0 -125 -68 -221 -209 -223c-143 -2 -201 106 -200 231s73 226 209 224zM113 511c0 -97 31 -176 131 -176c91 0 130 79 130 176s-36 176 -130 176c-95 0 -131 -79 -131 -176z" />
    <glyph glyph-name="ae" unicode="&#xe6;" horiz-adv-x="1021" 
d="M210 -8c-61 10 -135 40 -159 103c-13 36 -13 86 10 124c51 87 179 84 258 84h135c0 37 -12 89 -53 117c-37 24 -121 31 -166 4c-36 -21 -55 -64 -58 -88l-119 21c20 69 52 112 125 138c80 29 237 35 313 -30c13 -11 17 -16 28 -30c12 16 49 52 122 70
c74 19 226 22 311 -72c56 -63 68 -136 68 -206h-457c2 -58 26 -113 95 -148c49 -24 129 -27 179 5c34 22 52 52 63 87l117 -20c-38 -99 -133 -149 -217 -160c-85 -14 -213 2 -296 99c-74 -97 -208 -114 -299 -98zM841 417c-52 34 -128 35 -179 12c-57 -25 -87 -82 -92 -126
h335c0 40 -25 88 -64 114zM355 227c-68 0 -147 4 -182 -34c-17 -17 -19 -40 -14 -59c9 -32 38 -52 61 -61c46 -18 127 -11 171 17c53 32 63 78 63 137h-99z" />
    <glyph glyph-name="oslash" unicode="&#xf8;" horiz-adv-x="640" 
d="M548 451l45 40h91l-94 -84c59 -79 67 -176 38 -253c-30 -77 -84 -126 -173 -153c-75 -23 -201 -23 -286 31l-40 -37h-91l81 73c-73 75 -88 173 -70 252c21 88 93 155 182 180c63 17 216 39 317 -49zM362 438c-47 3 -114 -3 -167 -69c-41 -51 -50 -152 -3 -235l282 252
c-34 38 -85 50 -112 52zM236 92c50 -32 105 -35 145 -28c55 10 116 45 136 120c19 66 2 126 -9 150z" />
    <glyph glyph-name="questiondown" unicode="&#xbf;" horiz-adv-x="443" 
d="M281 738v-384h129v-55h-338v55h131v261h-110v55c20 -3 57 -2 81 8c31 13 34 33 34 60h73z" />
    <glyph glyph-name="exclamdown" unicode="&#xa1;" horiz-adv-x="460" 
d="M226 728h65v-439h-78v320h-91v57c41 0 65 0 89 18c12 9 15 23 15 44z" />
    <glyph glyph-name="logicalnot" unicode="&#xac;" horiz-adv-x="669" 
d="M421 731v-639h215v-92h-564v92h218v436h-184v90c35 -5 97 -4 136 14c51 22 56 54 56 99h123z" />
    <glyph glyph-name="guillemotleft" unicode="&#xab;" horiz-adv-x="531" 
d="M498 500v-76l-146 -89l144 -97v-76l-208 140v62zM282 500v-76l-146 -89l144 -97v-76l-208 140v62z" />
    <glyph glyph-name="guillemotright" unicode="&#xbb;" horiz-adv-x="531" 
d="M282 364v-62l-208 -140v76l144 97l-146 89v76zM498 364v-62l-208 -140v76l144 97l-146 89v76z" />
    <glyph glyph-name="ellipsis" unicode="&#x2026;" horiz-adv-x="462" 
d="M226 786h40v-49c80 -3 165 -30 188 -125l-76 -10c-9 38 -21 62 -67 76c-6 2 -19 6 -45 8v-136c108 -17 178 -35 196 -95c9 -33 5 -76 -29 -110c-43 -43 -105 -54 -167 -58v-47h-40v49c-42 1 -143 20 -182 83c-11 18 -16 35 -20 59l82 12c6 -37 12 -63 57 -86
c8 -3 18 -7 32 -11c9 -2 24 -4 31 -3v151l-41 8c-44 9 -114 25 -137 79c-11 28 -7 59 15 88c40 54 115 68 163 70v47zM134 649c-13 -15 -14 -33 -8 -46c14 -38 77 -45 100 -48v131c-23 -1 -72 -11 -92 -37zM266 342c31 2 82 10 106 45c12 17 14 37 9 50
c-12 28 -66 41 -91 46l-24 4v-145z" />
    <glyph glyph-name="Agrave" unicode="&#xc0;" horiz-adv-x="899" 
d="M409 747h135l361 -756h-131l-104 219h-400l-105 -210h-129zM458 586l-142 -284h308l-129 284c-11 26 -14 53 -17 74h-3c-3 -21 -4 -47 -17 -74zM341 1002h117l85 -176h-89z" />
    <glyph glyph-name="Atilde" unicode="&#xc3;" horiz-adv-x="899" 
d="M409 747h135l361 -756h-131l-104 219h-400l-105 -210h-129zM458 586l-142 -284h308l-129 284c-11 26 -14 53 -17 74h-3c-3 -21 -4 -47 -17 -74zM683 944v-81c-75 -49 -101 -45 -182 -16l-26 9c-83 29 -94 27 -174 -22v75c79 47 104 45 184 17l25 -9
c77 -28 103 -32 173 27z" />
    <glyph glyph-name="Otilde" unicode="&#xd5;" horiz-adv-x="934" 
d="M423 755c78 8 305 9 427 -137c80 -97 92 -256 58 -361c-45 -135 -168 -219 -279 -248c-129 -34 -321 -48 -477 95c-85 78 -124 205 -108 329c15 107 79 217 202 277c71 35 140 41 177 45zM291 610c-97 -67 -120 -168 -118 -245c3 -83 34 -177 133 -236
c97 -62 235 -62 324 -21c101 46 145 133 160 214c16 80 -6 198 -88 272c-93 83 -232 83 -307 65c-30 -7 -77 -28 -104 -49zM650 944v-81c-75 -49 -101 -45 -182 -16l-26 9c-83 29 -94 27 -173 -22v75c78 47 103 45 183 17l25 -9c78 -28 103 -32 173 27z" />
    <glyph glyph-name="OE" unicode="&#x152;" horiz-adv-x="1177" 
d="M1144 747v-91h-403l-1 -230h389v-91h-389v-240h419v-95h-665c-128 0 -301 16 -408 198c-59 101 -59 262 -9 355c81 155 256 194 399 194h668zM493 656c-108 0 -241 -29 -303 -145c-38 -71 -38 -193 8 -270c80 -137 211 -146 307 -146h106v561h-118z" />
    <glyph glyph-name="oe" unicode="&#x153;" horiz-adv-x="1104" 
d="M729 505c78 19 227 22 311 -72c57 -63 68 -136 68 -206h-457c2 -58 26 -113 95 -148c49 -24 130 -27 179 5c34 22 52 52 64 87l116 -20c-38 -99 -133 -149 -217 -160c-85 -14 -213 2 -295 99c-30 -35 -58 -63 -143 -90c-76 -24 -227 -22 -320 59c-72 61 -93 158 -87 224
c6 71 40 146 138 197c39 21 79 28 114 32c85 10 210 2 291 -99c18 24 62 73 143 92zM171 323c-19 -51 -12 -151 31 -201c52 -60 128 -69 182 -57c67 13 110 50 132 115c19 53 11 147 -35 199c-58 65 -134 66 -186 54c-59 -14 -104 -52 -124 -110zM924 419
c-52 34 -128 35 -179 12c-57 -25 -87 -82 -92 -125h336c-2 42 -26 87 -65 113z" />
    <glyph glyph-name="endash" unicode="&#x2013;" horiz-adv-x="920" 
d="M871 294v-83h-799v83h799z" />
    <glyph glyph-name="emdash" unicode="&#x2014;" horiz-adv-x="1045" 
d="M1002 294v-83h-930v83h930z" />
    <glyph glyph-name="quotedblleft" unicode="&#x201c;" horiz-adv-x="513" 
d="M72 742h128l93 -300h-94zM259 741h127l94 -300h-94z" />
    <glyph glyph-name="quotedblright" unicode="&#x201d;" horiz-adv-x="513" 
d="M167 740h126l-127 -299h-94zM354 738h124l-130 -300h-93z" />
    <glyph glyph-name="quoteleft" unicode="&#x2018;" horiz-adv-x="329" 
d="M72 741h129l91 -302h-98z" />
    <glyph glyph-name="quoteright" unicode="&#x2019;" horiz-adv-x="329" 
d="M169 742h127l-128 -298h-96z" />
    <glyph glyph-name="divide" unicode="&#xf7;" horiz-adv-x="812" 
d="M679 726h100l-611 -726h-96z" />
    <glyph glyph-name="ydieresis" unicode="&#xff;" horiz-adv-x="588" 
d="M28 502h118l147 -337c14 -33 16 -53 19 -73c3 22 3 41 15 71l142 339h111l-250 -586c-39 -92 -64 -138 -155 -153c-25 -3 -95 -2 -128 4v79c19 -3 118 -21 153 38c16 28 28 57 52 123zM110 676h112v-108h-112v108zM373 676h113v-108h-113v108z" />
    <glyph glyph-name="Ydieresis" unicode="&#x178;" horiz-adv-x="882" 
d="M29 747h145l247 -293c17 -22 23 -31 28 -48c6 21 8 28 25 48l263 293h143l-372 -410v-338h-129v339zM347 827h-90l86 176h117z" />
    <glyph glyph-name="fraction" unicode="&#x2044;" horiz-adv-x="882" 
d="M66 747h145l247 -293c17 -22 23 -31 28 -48c6 21 8 28 25 48l263 293h143l-372 -410v-338h-129v339zM283 935h112v-108h-112v108zM546 935h112v-108h-112v108z" />
    <glyph glyph-name="currency" unicode="&#xa4;" horiz-adv-x="460" 
d="M163 349h271v-54h-372v67l46 21c64 27 225 120 241 214c4 20 0 48 -19 66c-30 28 -83 31 -110 25c-26 -6 -53 -18 -68 -49c-6 -16 -9 -34 -7 -56l-76 12c1 44 15 90 65 118c55 31 173 35 229 2c47 -28 63 -66 63 -107c-1 -91 -77 -156 -185 -219c-29 -17 -78 -40 -78 -40
z" />
    <glyph glyph-name="guilsinglleft" unicode="&#x2039;" horiz-adv-x="524" 
d="M292 252l177 -252h-69l-183 255l201 253h73zM147 252l177 -252h-69l-183 255l201 253h73z" />
    <glyph glyph-name="guilsinglright" unicode="&#x203a;" horiz-adv-x="524" 
d="M72 508h73l201 -253l-183 -255h-69l177 252zM217 508h73l201 -253l-183 -255h-69l177 252z" />
    <glyph glyph-name="fi" unicode="&#xfb01;" horiz-adv-x="460" 
d="M399 731v-51h-240l-25 -134c17 17 30 24 51 32c56 21 130 15 181 -21c44 -32 63 -77 62 -115c0 -46 -18 -90 -70 -126c-59 -39 -151 -38 -207 -18c-49 19 -85 59 -95 110l74 12c3 -16 6 -25 12 -36c24 -40 65 -51 98 -51c34 0 79 15 102 56c16 28 16 72 0 100
c-26 42 -76 53 -107 52c-38 -1 -75 -17 -97 -63l-77 10l40 243h298z" />
    <glyph glyph-name="fl" unicode="&#xfb02;" horiz-adv-x="460" 
d="M419 637l-71 -11c-17 41 -39 61 -76 65c-27 3 -73 1 -104 -36c-27 -31 -40 -91 -40 -125c61 58 125 64 184 48c45 -12 97 -46 115 -99c12 -40 8 -92 -27 -132c-49 -57 -137 -68 -185 -61c-63 10 -109 37 -142 111c-28 67 -28 195 20 262c48 68 113 83 173 79
c59 -3 125 -27 153 -101zM184 520c-34 -20 -47 -52 -48 -79c-1 -28 9 -67 47 -90c35 -21 88 -18 118 -6c36 14 56 45 60 77s-4 65 -35 90c-33 27 -86 29 -117 18c-7 -2 -16 -4 -25 -10z" />
    <glyph glyph-name="daggerdbl" unicode="&#x2021;" horiz-adv-x="460" 
d="M58 731h372v-55s-136 -199 -243 -383h-81c142 248 248 384 248 384h-296v54z" />
    <glyph glyph-name="periodcentered" unicode="&#xb7;" horiz-adv-x="270" 
d="M72 23h49v-56c41 -4 86 -17 107 -67c11 -23 12 -57 -4 -86c-19 -36 -66 -54 -98 -56c-34 -2 -54 0 -54 0v44c28 -3 79 -5 103 30c10 16 11 39 3 55c-15 28 -38 37 -71 40c-12 1 -23 0 -35 -1v97z" />
    <glyph glyph-name="quotedblbase" unicode="&#x201e;" horiz-adv-x="513" 
d="M121 123h127l-128 -298h-93zM309 121h124l-131 -299h-92z" />
    <glyph glyph-name="Acircumflex" unicode="&#xc2;" horiz-adv-x="899" 
d="M401 747h135l361 -756h-132l-103 219h-401l-105 -210h-128zM450 586l-142 -284h308l-129 284c-12 26 -14 53 -17 74h-3c-3 -21 -4 -47 -17 -74zM441 1002h75l175 -175h-101l-89 93c-15 15 -21 19 -25 32c-3 -8 -13 -17 -20 -24l-98 -97h-92z" />
    <glyph glyph-name="Ecircumflex" unicode="&#xca;" horiz-adv-x="712" 
d="M72 747h607v-91h-477v-230h462v-91h-462v-244h492v-91h-622v747zM335 1002h75l175 -175h-101l-89 93c-15 15 -21 19 -25 32c-3 -8 -13 -17 -20 -24l-98 -97h-92z" />
    <glyph glyph-name="Aacute" unicode="&#xc1;" horiz-adv-x="899" 
d="M409 747h135l361 -756h-131l-104 219h-400l-105 -210h-129zM458 586l-142 -284h308l-129 284c-11 26 -14 53 -17 74h-3c-3 -21 -4 -47 -17 -74zM493 827h-90l86 176h117z" />
    <glyph glyph-name="Edieresis" unicode="&#xcb;" horiz-adv-x="712" 
d="M72 747h607v-91h-477v-230h462v-91h-462v-244h492v-91h-622v747zM168 935h112v-108h-112v108zM431 935h112v-108h-112v108z" />
    <glyph glyph-name="Egrave" unicode="&#xc8;" horiz-adv-x="712" 
d="M72 747h607v-91h-477v-230h462v-91h-462v-244h492v-91h-622v747zM266 1002h118l85 -176h-89z" />
    <glyph glyph-name="Iacute" unicode="&#xcd;" horiz-adv-x="235" 
d="M72 747h130v-747h-130v747zM157 827h-89l85 176h118z" />
    <glyph glyph-name="Icircumflex" unicode="&#xce;" horiz-adv-x="235" 
d="M72 747h130v-747h-130v747zM116 1002h75l175 -175h-102l-88 93c-16 15 -21 19 -25 32c-3 -8 -13 -17 -20 -24l-98 -97h-92z" />
    <glyph glyph-name="Idieresis" unicode="&#xcf;" horiz-adv-x="235" 
d="M72 747h130v-747h-130v747zM-48 935h112v-108h-112v108zM215 935h112v-108h-112v108z" />
    <glyph glyph-name="Igrave" unicode="&#xcc;" horiz-adv-x="235" 
d="M72 747h130v-747h-130v747zM16 1002h118l85 -176h-89z" />
    <glyph glyph-name="Oacute" unicode="&#xd3;" horiz-adv-x="934" 
d="M423 755c78 8 305 9 427 -137c80 -97 92 -256 58 -361c-45 -135 -168 -219 -279 -248c-129 -34 -321 -48 -477 95c-85 78 -124 205 -108 329c15 107 79 217 202 277c71 35 140 41 177 45zM291 610c-97 -67 -120 -168 -118 -245c3 -83 34 -177 133 -236
c97 -62 235 -62 324 -21c101 46 145 133 160 214c16 80 -6 198 -88 272c-93 83 -232 83 -307 65c-30 -7 -77 -28 -104 -49zM394 827h-89l85 176h117z" />
    <glyph glyph-name="Ocircumflex" unicode="&#xd4;" horiz-adv-x="934" 
d="M423 755c78 8 305 9 427 -137c80 -97 92 -256 58 -361c-45 -135 -168 -219 -279 -248c-129 -34 -321 -48 -477 95c-85 78 -124 205 -108 329c15 107 79 217 202 277c71 35 140 41 177 45zM291 610c-97 -67 -120 -168 -118 -245c3 -83 34 -177 133 -236
c97 -62 235 -62 324 -21c101 46 145 133 160 214c16 80 -6 198 -88 272c-93 83 -232 83 -307 65c-30 -7 -77 -28 -104 -49zM432 1002h75l175 -175h-102l-88 93c-16 15 -21 19 -25 32c-3 -8 -13 -17 -20 -24l-98 -97h-92z" />
    <glyph glyph-name="Ograve" unicode="&#xd2;" horiz-adv-x="934" 
d="M423 755c78 8 305 9 427 -137c80 -97 92 -256 58 -361c-45 -135 -168 -219 -279 -248c-129 -34 -321 -48 -477 95c-85 78 -124 205 -108 329c15 107 79 217 202 277c71 35 140 41 177 45zM291 610c-97 -67 -120 -168 -118 -245c3 -83 34 -177 133 -236
c97 -62 235 -62 324 -21c101 46 145 133 160 214c16 80 -6 198 -88 272c-93 83 -232 83 -307 65c-30 -7 -77 -28 -104 -49zM384 1002h117l85 -176h-89z" />
    <glyph glyph-name="Uacute" unicode="&#xda;" horiz-adv-x="854" 
d="M72 747h130v-415c0 -60 -3 -169 91 -224c73 -41 232 -47 310 -2c96 56 88 168 88 229v412h130v-427c0 -91 3 -209 -140 -288c-116 -64 -362 -58 -479 10c-142 82 -130 199 -130 315v390zM337 827h-89l85 176h118z" />
    <glyph glyph-name="Ucircumflex" unicode="&#xdb;" horiz-adv-x="854" 
d="M72 747h130v-415c0 -60 -3 -169 91 -224c73 -41 232 -47 310 -2c96 56 88 168 88 229v412h130v-427c0 -91 3 -209 -140 -288c-116 -64 -362 -58 -479 10c-142 82 -130 199 -130 315v390zM406 1002h75l175 -175h-101l-89 93c-15 15 -21 19 -25 32c-3 -8 -13 -17 -20 -24
l-98 -97h-92z" />
    <glyph glyph-name="Ugrave" unicode="&#xd9;" horiz-adv-x="854" 
d="M72 747h130v-415c0 -60 -3 -169 91 -224c73 -41 232 -47 310 -2c96 56 88 168 88 229v412h130v-427c0 -91 3 -209 -140 -288c-116 -64 -362 -58 -479 10c-142 82 -130 199 -130 315v390zM379 1002h117l85 -176h-89z" />
    <glyph glyph-name="dotlessi" unicode="&#x131;" horiz-adv-x="218" 
d="M72 502h113v-502h-113v502z" />
    <glyph glyph-name="circumflex" unicode="&#x2c6;" horiz-adv-x="530" 
d="M247 743h75l175 -175h-102l-88 92c-16 16 -21 20 -25 32c-3 -7 -13 -16 -21 -23l-97 -97h-92z" />
    <glyph glyph-name="tilde" unicode="&#x2dc;" horiz-adv-x="487" 
d="M454 687v-81c-75 -49 -101 -45 -182 -16l-26 9c-83 29 -95 27 -174 -22v75c78 47 104 45 183 17l26 -10c77 -27 103 -31 173 28z" />
    <glyph glyph-name="breve" unicode="&#x2d8;" horiz-adv-x="478" 
d="M72 743h77c1 -42 -1 -79 51 -107c28 -15 87 -16 120 3c45 26 46 61 49 102h76c-3 -52 -8 -109 -66 -145c-54 -33 -169 -38 -229 -4c-68 38 -77 87 -78 151z" />
    <glyph glyph-name="dotaccent" unicode="&#x2d9;" horiz-adv-x="460" 
d="M325 523c33 -4 79 -26 98 -70c12 -28 9 -65 -6 -91c-36 -56 -104 -72 -155 -75c-44 -3 -141 12 -182 65c-20 26 -28 54 -28 86l78 12c0 -29 0 -67 38 -93c27 -21 86 -25 123 -14c24 8 53 25 62 55c6 19 3 47 -6 62c-23 36 -53 38 -112 38h-70v51h70c26 0 81 3 106 44
c6 11 8 39 1 52c-18 34 -60 44 -89 45c-30 2 -76 -3 -101 -40c-11 -17 -12 -36 -14 -55l-74 12c4 41 16 79 66 106c55 30 160 33 219 4c38 -18 64 -45 70 -83c4 -24 -2 -52 -28 -76c-21 -20 -48 -31 -66 -35z" />
    <glyph glyph-name="ring" unicode="&#x2da;" horiz-adv-x="354" 
d="M72 678c2 69 62 106 127 106c66 0 122 -42 122 -110c0 -69 -61 -106 -127 -106c-65 0 -123 42 -122 110zM189 603c41 -3 78 27 82 68c3 41 -26 77 -67 80s-78 -26 -82 -67c-3 -41 26 -78 67 -81z" />
    </font>
</defs>
</svg>
