<svg id="Layer_1" data-name="Layer 1" xmlns="http://www.w3.org/2000/svg" viewBox="0 0 103.8731 100"><defs><style>.cls-1{fill:#39b04a;}</style></defs><g id="SVGRepo_iconCarrier" data-name="SVGRepo iconCarrier"><path class="cls-1" d="M13.90473,34.10952A41.49869,41.49869,0,0,1,86.79734,28.205L74.938,24.19312A4.60907,4.60907,0,1,0,71.98355,32.925L94.24663,40.4563a4.608,4.608,0,0,0,6.0389-3.70851l3.53983-24.56748a4.60923,4.60923,0,0,0-9.12425-1.31453L93.20589,21.2429A50.71463,50.71463,0,0,0,5.45745,30.41861a4.60921,4.60921,0,1,0,8.44728,3.69091Z"/><path class="cls-1" d="M9.62633,59.54462a4.60953,4.60953,0,0,0-6.03908,3.70944L.0477,87.8208a4.60914,4.60914,0,1,0,9.12408,1.31452L10.667,78.75738a50.71459,50.71459,0,0,0,87.74815-9.17589,4.609,4.609,0,1,0-8.44671-3.691,41.49914,41.49914,0,0,1-72.89206,5.90616l11.85868,4.01179a4.60929,4.60929,0,1,0,2.954-8.73248Z"/></g></svg>