<svg id="insta_green" data-name="insta green" xmlns="http://www.w3.org/2000/svg" viewBox="0 0 425.19685 425.19685"><rect width="425.19685" height="425.19685" style="fill:#39b04a"/><g id="SVGRepo_iconCarrier" data-name="SVGRepo iconCarrier"><path d="M270.73081,212.59843a58.13257,58.13257,0,1,1-111.94636-21.84116H127.06078v87.03247a20.37936,20.37936,0,0,0,20.34633,20.34633H277.78974a20.37936,20.37936,0,0,0,20.34633-20.34633V190.75727H266.4124A56.30338,56.30338,0,0,1,270.73081,212.59843Z" transform="translate(0 0)"/><polygon points="294.316 166.84 294.316 135.448 294.316 130.798 289.665 130.798 258.274 130.881 258.44 166.923 294.316 166.84"/><path d="M212.59843,249.96924a37.42111,37.42111,0,1,0-37.28777-37.45387A37.51574,37.51574,0,0,0,212.59843,249.96924Z" transform="translate(0 0)"/><path d="M0,0V425.19685H425.19685V0ZM318.89764,190.75727v87.03247a41.14848,41.14848,0,0,1-41.1079,41.1079H147.40711a41.14848,41.14848,0,0,1-41.1079-41.1079V147.32409a41.14848,41.14848,0,0,1,41.1079-41.1079H277.78974a41.14848,41.14848,0,0,1,41.1079,41.1079Z" transform="translate(0 0)"/></g></svg>