<?xml version="1.0" encoding="utf-8"?>
<!-- Generator: Adobe Illustrator 25.0.1, SVG Export Plug-In . SVG Version: 6.00 Build 0)  -->
<svg version="1.1" xmlns="http://www.w3.org/2000/svg" xmlns:xlink="http://www.w3.org/1999/xlink" x="0px" y="0px"
	 viewBox="0 0 425.2 425.2" style="enable-background:new 0 0 425.2 425.2;" xml:space="preserve">
<style type="text/css">
	.st0{display:none;}
	.st1{display:inline;}
	.st2{fill:#39B04A;}
	.st3{display:inline;fill-rule:evenodd;clip-rule:evenodd;}
	.st4{display:inline;fill-rule:evenodd;clip-rule:evenodd;fill:#39B04A;}
	.st5{fill-rule:evenodd;clip-rule:evenodd;stroke:#39B04A;stroke-width:2;stroke-miterlimit:10;}
	.st6{fill-rule:evenodd;clip-rule:evenodd;fill:#39B04A;stroke:#000000;stroke-width:2;stroke-miterlimit:10;}
</style>
<g id="fb_black" class="st0">
	<rect y="0" class="st1" width="425.2" height="425.2"/>
	<g id="SVGRepo_iconCarrier" class="st1">
		<path class="st2" d="M0,0v425.2h425.2V0H0z M259.5,176.6l-2.4,31.8h-32.6v110.5h-41.2V208.4h-22v-31.8h22v-21.3
			c0-9.4,0.2-23.9,7.1-33c7.2-9.6,17.1-16,34.1-16c27.7,0,39.4,4,39.4,4l-5.5,32.6c-5.8-1.6-11.7-2.5-17.7-2.7
			c-8.6,0-16.2,3.1-16.2,11.6v24.8L259.5,176.6z"/>
	</g>
</g>
<g id="spotify_green" class="st0">
	<rect y="0" class="st3" width="425.2" height="425.2"/>
	<g id="SVGRepo_bgCarrier" class="st1">
	</g>
	<g id="SVGRepo_tracerCarrier" class="st1">
	</g>
	<rect x="130.4" y="132.9" class="st4" width="181.6" height="142"/>
	<g id="SVGRepo_iconCarrier_1_" class="st1">
		<desc>Created with Sketch.</desc>
		<g id="Page-1">
			<g id="Dribbble-Light-Preview" transform="translate(-140.000000, -7479.000000)">
				<g id="icons" transform="translate(56.000000, 160.000000)">
					<path id="spotify-_x5B__x23_162_x5D_" class="st5" d="M376.3,7510.4c-40.2-23.9-106.5-26.1-144.9-14.4
						c-6.2,1.9-12.7-1.6-14.5-7.8c-1.9-6.2,1.6-12.7,7.8-14.5c44.1-13.4,117.3-10.8,163.6,16.7c5.5,3.3,7.4,10.5,4.1,16
						C389,7511.8,381.9,7513.7,376.3,7510.4L376.3,7510.4z M375,7545.7c-2.8,4.6-8.8,6-13.4,3.2c-33.5-20.6-84.6-26.6-124.3-14.5
						c-5.2,1.5-10.6-1.3-12.1-6.5c-1.5-5.1,1.3-10.6,6.5-12.1c45.3-13.7,101.6-7.1,140.1,16.6C376.4,7535.2,377.8,7541.2,375,7545.7
						L375,7545.7z M359.8,7579.7c-2.2,3.7-7,4.8-10.7,2.6c-29.3-17.9-66.2-21.9-109.6-12c-4.2,1-8.4-1.7-9.3-5.9
						c-1-4.2,1.6-8.3,5.8-9.3c47.5-10.9,88.3-6.2,121.1,13.9C360.8,7571.2,362,7576,359.8,7579.7L359.8,7579.7z M302.6,7399.8
						c-68.9,0-124.7,55.8-124.7,124.7c0,68.9,55.8,124.7,124.7,124.7s124.7-55.8,124.7-124.7
						C427.3,7455.6,371.4,7399.8,302.6,7399.8L302.6,7399.8z"/>
				</g>
			</g>
		</g>
	</g>
</g>
<g id="spotify_black" class="st0">
	<rect y="0" class="st4" width="425.2" height="425.2"/>
	<g id="SVGRepo_bgCarrier_1_" class="st1">
	</g>
	<g id="SVGRepo_tracerCarrier_1_" class="st1">
	</g>
	<rect x="130.4" y="132.9" class="st3" width="181.6" height="142"/>
	<g id="SVGRepo_iconCarrier_2_" class="st1">
		<desc>Created with Sketch.</desc>
		<g id="Page-1_1_">
			<g id="Dribbble-Light-Preview_1_" transform="translate(-140.000000, -7479.000000)">
				<g id="icons_1_" transform="translate(56.000000, 160.000000)">
					<path id="spotify-_x5B__x23_162_x5D__1_" class="st6" d="M376.3,7510.4c-40.2-23.9-106.5-26.1-144.9-14.4
						c-6.2,1.9-12.7-1.6-14.5-7.8c-1.9-6.2,1.6-12.7,7.8-14.5c44.1-13.4,117.3-10.8,163.6,16.7c5.5,3.3,7.4,10.5,4.1,16
						C389,7511.8,381.9,7513.7,376.3,7510.4L376.3,7510.4z M375,7545.7c-2.8,4.6-8.8,6-13.4,3.2c-33.5-20.6-84.6-26.6-124.3-14.5
						c-5.2,1.5-10.6-1.3-12.1-6.5c-1.5-5.1,1.3-10.6,6.5-12.1c45.3-13.7,101.6-7.1,140.1,16.6C376.4,7535.2,377.8,7541.2,375,7545.7
						L375,7545.7z M359.8,7579.7c-2.2,3.7-7,4.8-10.7,2.6c-29.3-17.9-66.2-21.9-109.6-12c-4.2,1-8.4-1.7-9.3-5.9
						c-1-4.2,1.6-8.3,5.8-9.3c47.5-10.9,88.3-6.2,121.1,13.9C360.8,7571.2,362,7576,359.8,7579.7L359.8,7579.7z M302.6,7399.8
						c-68.9,0-124.7,55.8-124.7,124.7c0,68.9,55.8,124.7,124.7,124.7s124.7-55.8,124.7-124.7
						C427.3,7455.6,371.4,7399.8,302.6,7399.8L302.6,7399.8z"/>
				</g>
			</g>
		</g>
	</g>
</g>
<g id="youtubeGreen" class="st0">
	<g id="SVGRepo_bgCarrier_2_" class="st1">
	</g>
	<g id="SVGRepo_tracerCarrier_2_" class="st1">
	</g>
	<rect class="st1" width="425.2" height="425.2"/>
	<g id="SVGRepo_iconCarrier_3_" class="st1">
		<g>
			<path class="st2" d="M287.2,122.3H138c-29.3,0-53,23.7-53,53v74.6c0,29.3,23.7,53,53,53h149.1c29.3,0,53-23.7,53-53v-74.6
				C340.2,146.1,316.4,122.3,287.2,122.3z M251.3,216.2l-69.8,33.3c-1.9,0.9-4-0.5-4-2.5v-68.6c0-2.1,2.2-3.4,4.1-2.5l69.8,35.4
				C253.5,212.3,253.4,215.2,251.3,216.2z"/>
		</g>
	</g>
</g>
<g id="youtubeBlack">
	<g id="SVGRepo_bgCarrier_3_">
	</g>
	<g id="SVGRepo_tracerCarrier_3_">
	</g>
	<rect class="st2" width="425.2" height="425.2"/>
	<g id="SVGRepo_iconCarrier_4_">
		<g>
			<path d="M287.2,122.3H138c-29.3,0-53,23.7-53,53v74.6c0,29.3,23.7,53,53,53h149.1c29.3,0,53-23.7,53-53v-74.6
				C340.2,146.1,316.4,122.3,287.2,122.3z M251.3,216.2l-69.8,33.3c-1.9,0.9-4-0.5-4-2.5v-68.6c0-2.1,2.2-3.4,4.1-2.5l69.8,35.4
				C253.5,212.3,253.4,215.2,251.3,216.2z"/>
		</g>
	</g>
</g>
</svg>
